<mxfile host="65bd71144e">
    <diagram id="ysJS9mJBgbY0m7gBlG-X" name="Page-1">
        <mxGraphModel dx="678" dy="548" grid="0" gridSize="10" guides="1" tooltips="1" connect="1" arrows="1" fold="1" page="1" pageScale="1" pageWidth="827" pageHeight="1169" math="0" shadow="0">
            <root>
                <mxCell id="0"/>
                <mxCell id="1" parent="0"/>
                <mxCell id="11" style="edgeStyle=orthogonalEdgeStyle;html=1;entryX=0;entryY=0.5;entryDx=0;entryDy=0;" edge="1" parent="1" source="2" target="10">
                    <mxGeometry relative="1" as="geometry"/>
                </mxCell>
                <mxCell id="12" style="edgeStyle=orthogonalEdgeStyle;html=1;entryX=0;entryY=0.5;entryDx=0;entryDy=0;" edge="1" parent="1" source="2" target="9">
                    <mxGeometry relative="1" as="geometry"/>
                </mxCell>
                <mxCell id="15" style="edgeStyle=orthogonalEdgeStyle;html=1;entryX=1;entryY=0.5;entryDx=0;entryDy=0;endArrow=classic;endFill=1;" edge="1" parent="1" source="2" target="3">
                    <mxGeometry relative="1" as="geometry"/>
                </mxCell>
                <mxCell id="2" value="Person" style="html=1;" vertex="1" parent="1">
                    <mxGeometry x="414" y="280" width="110" height="50" as="geometry"/>
                </mxCell>
                <mxCell id="3" value="Salutation" style="html=1;" vertex="1" parent="1">
                    <mxGeometry x="230" y="280" width="110" height="50" as="geometry"/>
                </mxCell>
                <mxCell id="13" style="edgeStyle=orthogonalEdgeStyle;html=1;entryX=0.5;entryY=0;entryDx=0;entryDy=0;endArrow=classic;endFill=1;" edge="1" parent="1" source="4" target="2">
                    <mxGeometry relative="1" as="geometry"/>
                </mxCell>
                <mxCell id="14" style="edgeStyle=orthogonalEdgeStyle;html=1;entryX=1;entryY=0.5;entryDx=0;entryDy=0;endArrow=classic;endFill=1;" edge="1" parent="1" source="4" target="5">
                    <mxGeometry relative="1" as="geometry"/>
                </mxCell>
                <mxCell id="4" value="PersonBuilder" style="html=1;" vertex="1" parent="1">
                    <mxGeometry x="414" y="160" width="110" height="50" as="geometry"/>
                </mxCell>
                <mxCell id="5" value="ValidationError" style="html=1;" vertex="1" parent="1">
                    <mxGeometry x="230" y="160" width="110" height="50" as="geometry"/>
                </mxCell>
                <mxCell id="16" style="edgeStyle=orthogonalEdgeStyle;html=1;entryX=0.5;entryY=1;entryDx=0;entryDy=0;endArrow=classic;endFill=1;" edge="1" parent="1" source="6" target="2">
                    <mxGeometry relative="1" as="geometry"/>
                </mxCell>
                <mxCell id="6" value="PersonController" style="html=1;" vertex="1" parent="1">
                    <mxGeometry x="414" y="400" width="110" height="50" as="geometry"/>
                </mxCell>
                <mxCell id="9" value="Faculty" style="html=1;" vertex="1" parent="1">
                    <mxGeometry x="600" y="240" width="110" height="50" as="geometry"/>
                </mxCell>
                <mxCell id="10" value="Room" style="html=1;" vertex="1" parent="1">
                    <mxGeometry x="600" y="320" width="110" height="50" as="geometry"/>
                </mxCell>
                <mxCell id="21" value="1..N" style="text;html=1;align=center;verticalAlign=middle;resizable=0;points=[];autosize=1;strokeColor=none;fillColor=none;" vertex="1" parent="1">
                    <mxGeometry x="470" y="340" width="40" height="20" as="geometry"/>
                </mxCell>
                <mxCell id="22" value="1..1" style="text;html=1;align=center;verticalAlign=middle;resizable=0;points=[];autosize=1;strokeColor=none;fillColor=none;" vertex="1" parent="1">
                    <mxGeometry x="350" y="280" width="40" height="20" as="geometry"/>
                </mxCell>
                <mxCell id="23" value="0..N" style="text;html=1;align=center;verticalAlign=middle;resizable=0;points=[];autosize=1;strokeColor=none;fillColor=none;" vertex="1" parent="1">
                    <mxGeometry x="350" y="160" width="40" height="20" as="geometry"/>
                </mxCell>
                <mxCell id="24" value="1..1" style="text;html=1;align=center;verticalAlign=middle;resizable=0;points=[];autosize=1;strokeColor=none;fillColor=none;" vertex="1" parent="1">
                    <mxGeometry x="470" y="210" width="40" height="20" as="geometry"/>
                </mxCell>
                <mxCell id="25" value="1..1" style="text;html=1;align=center;verticalAlign=middle;resizable=0;points=[];autosize=1;strokeColor=none;fillColor=none;" vertex="1" parent="1">
                    <mxGeometry x="560" y="240" width="40" height="20" as="geometry"/>
                </mxCell>
                <mxCell id="26" value="1..1" style="text;html=1;align=center;verticalAlign=middle;resizable=0;points=[];autosize=1;strokeColor=none;fillColor=none;" vertex="1" parent="1">
                    <mxGeometry x="550" y="350" width="40" height="20" as="geometry"/>
                </mxCell>
            </root>
        </mxGraphModel>
    </diagram>
</mxfile>